<?xml version="1.0" encoding="UTF-8" standalone="no"?>
<!DOCTYPE svg PUBLIC "-//W3C//DTD SVG 1.1//EN"
 "http://www.w3.org/Graphics/SVG/1.1/DTD/svg11.dtd">
<!-- Generated by graphviz version 2.43.0 (0)
 -->
<!-- Title: G Pages: 1 -->
<svg width="156pt" height="476pt"
 viewBox="0.00 0.00 156.00 476.00" xmlns="http://www.w3.org/2000/svg" xmlns:xlink="http://www.w3.org/1999/xlink">
<g id="graph0" class="graph" transform="scale(1 1) rotate(0) translate(4 472)">
<title>G</title>
<polygon fill="white" stroke="transparent" points="-4,4 -4,-472 152,-472 152,4 -4,4"/>
<!-- S -->
<g id="node1" class="node">
<title>S</title>
<ellipse fill="none" stroke="black" cx="63" cy="-450" rx="27" ry="18"/>
<text text-anchor="middle" x="63" y="-446.3" font-family="Times,serif" font-size="14.00">S</text>
</g>
<!-- A -->
<g id="node2" class="node">
<title>A</title>
<ellipse fill="none" stroke="black" cx="63" cy="-378" rx="27" ry="18"/>
<text text-anchor="middle" x="63" y="-374.3" font-family="Times,serif" font-size="14.00">A</text>
</g>
<!-- S&#45;&#45;A -->
<g id="edge1" class="edge">
<title>S&#45;&#45;A</title>
<path fill="none" stroke="black" d="M63,-431.7C63,-420.85 63,-406.92 63,-396.1"/>
</g>
<!-- B -->
<g id="node3" class="node">
<title>B</title>
<ellipse fill="none" stroke="black" cx="27" cy="-306" rx="27" ry="18"/>
<text text-anchor="middle" x="27" y="-302.3" font-family="Times,serif" font-size="14.00">B</text>
</g>
<!-- A&#45;&#45;B -->
<g id="edge11" class="edge">
<title>A&#45;&#45;B</title>
<path fill="none" stroke="black" d="M54.65,-360.76C48.83,-349.46 41.11,-334.44 35.3,-323.15"/>
</g>
<!-- G -->
<g id="node8" class="node">
<title>G</title>
<ellipse fill="none" stroke="black" cx="99" cy="-306" rx="27" ry="18"/>
<text text-anchor="middle" x="99" y="-302.3" font-family="Times,serif" font-size="14.00">G</text>
</g>
<!-- A&#45;&#45;G -->
<g id="edge7" class="edge">
<title>A&#45;&#45;G</title>
<path fill="none" stroke="black" d="M71.35,-360.76C77.17,-349.46 84.89,-334.44 90.7,-323.15"/>
</g>
<!-- C -->
<g id="node4" class="node">
<title>C</title>
<ellipse fill="none" stroke="black" cx="63" cy="-234" rx="27" ry="18"/>
<text text-anchor="middle" x="63" y="-230.3" font-family="Times,serif" font-size="14.00">C</text>
</g>
<!-- B&#45;&#45;C -->
<g id="edge2" class="edge">
<title>B&#45;&#45;C</title>
<path fill="none" stroke="black" d="M35.35,-288.76C41.17,-277.46 48.89,-262.44 54.7,-251.15"/>
</g>
<!-- F -->
<g id="node7" class="node">
<title>F</title>
<ellipse fill="none" stroke="black" cx="49" cy="-18" rx="27" ry="18"/>
<text text-anchor="middle" x="49" y="-14.3" font-family="Times,serif" font-size="14.00">F</text>
</g>
<!-- B&#45;&#45;F -->
<g id="edge10" class="edge">
<title>B&#45;&#45;F</title>
<path fill="none" stroke="black" d="M26.44,-287.92C25.98,-269.99 25.61,-240.99 27,-216 30.72,-149.17 41.49,-70.17 46.45,-36.07"/>
</g>
<!-- D -->
<g id="node5" class="node">
<title>D</title>
<ellipse fill="none" stroke="black" cx="113" cy="-162" rx="27" ry="18"/>
<text text-anchor="middle" x="113" y="-158.3" font-family="Times,serif" font-size="14.00">D</text>
</g>
<!-- C&#45;&#45;D -->
<g id="edge3" class="edge">
<title>C&#45;&#45;D</title>
<path fill="none" stroke="black" d="M74.1,-217.46C82.38,-205.86 93.66,-190.08 101.93,-178.49"/>
</g>
<!-- C&#45;&#45;F -->
<g id="edge9" class="edge">
<title>C&#45;&#45;F</title>
<path fill="none" stroke="black" d="M61.88,-215.85C59.26,-175.78 52.75,-76.38 50.13,-36.23"/>
</g>
<!-- E -->
<g id="node6" class="node">
<title>E</title>
<ellipse fill="none" stroke="black" cx="113" cy="-90" rx="27" ry="18"/>
<text text-anchor="middle" x="113" y="-86.3" font-family="Times,serif" font-size="14.00">E</text>
</g>
<!-- D&#45;&#45;E -->
<g id="edge5" class="edge">
<title>D&#45;&#45;E</title>
<path fill="none" stroke="black" d="M113,-143.7C113,-132.85 113,-118.92 113,-108.1"/>
</g>
<!-- E&#45;&#45;F -->
<g id="edge4" class="edge">
<title>E&#45;&#45;F</title>
<path fill="none" stroke="black" d="M99.43,-74.15C88.57,-62.28 73.41,-45.7 62.55,-33.82"/>
</g>
<!-- T -->
<g id="node9" class="node">
<title>T</title>
<ellipse fill="none" stroke="black" cx="121" cy="-18" rx="27" ry="18"/>
<text text-anchor="middle" x="121" y="-14.3" font-family="Times,serif" font-size="14.00">T</text>
</g>
<!-- E&#45;&#45;T -->
<g id="edge12" class="edge">
<title>E&#45;&#45;T</title>
<path fill="none" stroke="black" d="M114.98,-71.7C116.22,-60.85 117.81,-46.92 119.05,-36.1"/>
</g>
<!-- G&#45;&#45;C -->
<g id="edge8" class="edge">
<title>G&#45;&#45;C</title>
<path fill="none" stroke="black" d="M90.65,-288.76C84.83,-277.46 77.11,-262.44 71.3,-251.15"/>
</g>
<!-- G&#45;&#45;D -->
<g id="edge6" class="edge">
<title>G&#45;&#45;D</title>
<path fill="none" stroke="black" d="M100.69,-287.87C103.38,-260.58 108.61,-207.52 111.31,-180.19"/>
</g>
</g>
</svg>
