<?xml version="1.0" encoding="UTF-8" standalone="no"?>
<!DOCTYPE svg PUBLIC "-//W3C//DTD SVG 1.1//EN"
 "http://www.w3.org/Graphics/SVG/1.1/DTD/svg11.dtd">
<!-- Generated by graphviz version 2.43.0 (0)
 -->
<!-- Title: G Pages: 1 -->
<svg width="779pt" height="2492pt"
 viewBox="0.00 0.00 778.54 2492.00" xmlns="http://www.w3.org/2000/svg" xmlns:xlink="http://www.w3.org/1999/xlink">
<g id="graph0" class="graph" transform="scale(1 1) rotate(0) translate(4 2488)">
<title>G</title>
<polygon fill="white" stroke="transparent" points="-4,4 -4,-2488 774.54,-2488 774.54,4 -4,4"/>
<!-- x1x0 -->
<g id="node1" class="node">
<title>x1x0</title>
<ellipse fill="none" stroke="black" cx="144" cy="-2466" rx="33.29" ry="18"/>
<text text-anchor="middle" x="144" y="-2462.3" font-family="Times,serif" font-size="14.00">x1x0</text>
</g>
<!-- x7x5 -->
<g id="node2" class="node">
<title>x7x5</title>
<ellipse fill="none" stroke="black" cx="144" cy="-2394" rx="33.29" ry="18"/>
<text text-anchor="middle" x="144" y="-2390.3" font-family="Times,serif" font-size="14.00">x7x5</text>
</g>
<!-- x1x0&#45;&#45;x7x5 -->
<g id="edge1" class="edge">
<title>x1x0&#45;&#45;x7x5</title>
<path fill="none" stroke="black" d="M138.12,-2448.05C136.95,-2437.05 136.96,-2422.76 138.14,-2411.79"/>
</g>
<!-- x7x5&#45;&#45;x1x0 -->
<g id="edge2" class="edge">
<title>x7x5&#45;&#45;x1x0</title>
<path fill="none" stroke="black" d="M149.86,-2411.79C151.04,-2422.76 151.05,-2437.05 149.88,-2448.05"/>
</g>
<!-- x11x35 -->
<g id="node3" class="node">
<title>x11x35</title>
<ellipse fill="none" stroke="black" cx="103" cy="-1674" rx="44.69" ry="18"/>
<text text-anchor="middle" x="103" y="-1670.3" font-family="Times,serif" font-size="14.00">x11x35</text>
</g>
<!-- x7x5&#45;&#45;x11x35 -->
<g id="edge3" class="edge">
<title>x7x5&#45;&#45;x11x35</title>
<path fill="none" stroke="black" d="M130.68,-2377.25C115.41,-2351.49 94,-2298.47 94,-2251 94,-2251 94,-2251 94,-1817 94,-1771.89 94,-1718.71 97.29,-1692.05"/>
</g>
<!-- x33x15 -->
<g id="node4" class="node">
<title>x33x15</title>
<ellipse fill="none" stroke="black" cx="185" cy="-2322" rx="44.69" ry="18"/>
<text text-anchor="middle" x="185" y="-2318.3" font-family="Times,serif" font-size="14.00">x33x15</text>
</g>
<!-- x7x5&#45;&#45;x33x15 -->
<g id="edge4" class="edge">
<title>x7x5&#45;&#45;x33x15</title>
<path fill="none" stroke="black" d="M148.05,-2376.05C153.4,-2364.89 161.94,-2350.34 169.64,-2339.31"/>
</g>
<!-- x11x35&#45;&#45;x7x5 -->
<g id="edge5" class="edge">
<title>x11x35&#45;&#45;x7x5</title>
<path fill="none" stroke="black" d="M108.71,-1692.05C112,-1718.71 112,-1771.89 112,-1817 112,-2251 112,-2251 112,-2251 112,-2297.7 132.72,-2349.77 141.47,-2375.97"/>
</g>
<!-- x15x65 -->
<g id="node5" class="node">
<title>x15x65</title>
<ellipse fill="none" stroke="black" cx="103" cy="-1602" rx="44.69" ry="18"/>
<text text-anchor="middle" x="103" y="-1598.3" font-family="Times,serif" font-size="14.00">x15x65</text>
</g>
<!-- x11x35&#45;&#45;x15x65 -->
<g id="edge6" class="edge">
<title>x11x35&#45;&#45;x15x65</title>
<path fill="none" stroke="black" d="M97.12,-1656.05C95.97,-1645.21 95.96,-1631.18 97.09,-1620.28"/>
</g>
<!-- x29x37 -->
<g id="node6" class="node">
<title>x29x37</title>
<ellipse fill="none" stroke="black" cx="185" cy="-1746" rx="44.69" ry="18"/>
<text text-anchor="middle" x="185" y="-1742.3" font-family="Times,serif" font-size="14.00">x29x37</text>
</g>
<!-- x11x35&#45;&#45;x29x37 -->
<g id="edge7" class="edge">
<title>x11x35&#45;&#45;x29x37</title>
<path fill="none" stroke="black" d="M125.86,-1689.72C140.69,-1701.14 159.29,-1716.97 171.78,-1728.76"/>
</g>
<!-- x33x15&#45;&#45;x7x5 -->
<g id="edge25" class="edge">
<title>x33x15&#45;&#45;x7x5</title>
<path fill="none" stroke="black" d="M180.87,-2340.13C175.32,-2351.65 166.43,-2366.71 158.57,-2377.81"/>
</g>
<!-- x33x15&#45;&#45;x29x37 -->
<g id="edge26" class="edge">
<title>x33x15&#45;&#45;x29x37</title>
<path fill="none" stroke="black" d="M179.29,-2303.95C176,-2277.29 176,-2224.11 176,-2179 176,-2179 176,-2179 176,-1889 176,-1843.89 176,-1790.71 179.29,-1764.05"/>
</g>
<!-- x55x5 -->
<g id="node15" class="node">
<title>x55x5</title>
<ellipse fill="none" stroke="black" cx="267" cy="-2250" rx="38.99" ry="18"/>
<text text-anchor="middle" x="267" y="-2246.3" font-family="Times,serif" font-size="14.00">x55x5</text>
</g>
<!-- x33x15&#45;&#45;x55x5 -->
<g id="edge27" class="edge">
<title>x33x15&#45;&#45;x55x5</title>
<path fill="none" stroke="black" d="M198.22,-2304.76C210.97,-2292.73 230.08,-2276.49 245.05,-2265.02"/>
</g>
<!-- x15x65&#45;&#45;x11x35 -->
<g id="edge11" class="edge">
<title>x15x65&#45;&#45;x11x35</title>
<path fill="none" stroke="black" d="M108.91,-1620.28C110.04,-1631.18 110.03,-1645.21 108.88,-1656.05"/>
</g>
<!-- x19x85 -->
<g id="node8" class="node">
<title>x19x85</title>
<ellipse fill="none" stroke="black" cx="103" cy="-810" rx="44.69" ry="18"/>
<text text-anchor="middle" x="103" y="-806.3" font-family="Times,serif" font-size="14.00">x19x85</text>
</g>
<!-- x15x65&#45;&#45;x19x85 -->
<g id="edge12" class="edge">
<title>x15x65&#45;&#45;x19x85</title>
<path fill="none" stroke="black" d="M97.29,-1583.95C94,-1557.29 94,-1504.11 94,-1459 94,-1459 94,-1459 94,-953 94,-907.89 94,-854.71 97.29,-828.05"/>
</g>
<!-- x29x53 -->
<g id="node11" class="node">
<title>x29x53</title>
<ellipse fill="none" stroke="black" cx="185" cy="-1530" rx="44.69" ry="18"/>
<text text-anchor="middle" x="185" y="-1526.3" font-family="Times,serif" font-size="14.00">x29x53</text>
</g>
<!-- x15x65&#45;&#45;x29x53 -->
<g id="edge13" class="edge">
<title>x15x65&#45;&#45;x29x53</title>
<path fill="none" stroke="black" d="M116.22,-1584.76C128.71,-1572.97 147.31,-1557.14 162.14,-1545.72"/>
</g>
<!-- x29x37&#45;&#45;x11x35 -->
<g id="edge17" class="edge">
<title>x29x37&#45;&#45;x11x35</title>
<path fill="none" stroke="black" d="M161.97,-1730.15C147.2,-1718.76 128.72,-1703.03 116.28,-1691.29"/>
</g>
<!-- x29x37&#45;&#45;x33x15 -->
<g id="edge19" class="edge">
<title>x29x37&#45;&#45;x33x15</title>
<path fill="none" stroke="black" d="M190.71,-1764.05C194,-1790.71 194,-1843.89 194,-1889 194,-2179 194,-2179 194,-2179 194,-2224.11 194,-2277.29 190.71,-2303.95"/>
</g>
<!-- x29x37&#45;&#45;x29x53 -->
<g id="edge18" class="edge">
<title>x29x37&#45;&#45;x29x53</title>
<path fill="none" stroke="black" d="M181.12,-1727.85C177.29,-1687.68 177.29,-1587.89 181.14,-1547.94"/>
</g>
<!-- x53x43 -->
<g id="node13" class="node">
<title>x53x43</title>
<ellipse fill="none" stroke="black" cx="267" cy="-1818" rx="44.69" ry="18"/>
<text text-anchor="middle" x="267" y="-1814.3" font-family="Times,serif" font-size="14.00">x53x43</text>
</g>
<!-- x29x37&#45;&#45;x53x43 -->
<g id="edge20" class="edge">
<title>x29x37&#45;&#45;x53x43</title>
<path fill="none" stroke="black" d="M207.86,-1761.72C222.69,-1773.14 241.29,-1788.97 253.78,-1800.76"/>
</g>
<!-- x11x101 -->
<g id="node7" class="node">
<title>x11x101</title>
<ellipse fill="none" stroke="black" cx="97" cy="-738" rx="50.89" ry="18"/>
<text text-anchor="middle" x="97" y="-734.3" font-family="Times,serif" font-size="14.00">x11x101</text>
</g>
<!-- x11x101&#45;&#45;x19x85 -->
<g id="edge8" class="edge">
<title>x11x101&#45;&#45;x19x85</title>
<path fill="none" stroke="black" d="M104.39,-756.28C106.46,-767.18 107.65,-781.21 107.43,-792.05"/>
</g>
<!-- x37x111 -->
<g id="node9" class="node">
<title>x37x111</title>
<ellipse fill="none" stroke="black" cx="125" cy="-18" rx="50.89" ry="18"/>
<text text-anchor="middle" x="125" y="-14.3" font-family="Times,serif" font-size="14.00">x37x111</text>
</g>
<!-- x11x101&#45;&#45;x37x111 -->
<g id="edge9" class="edge">
<title>x11x101&#45;&#45;x37x111</title>
<path fill="none" stroke="black" d="M68.31,-723C54.11,-713.41 38.14,-699.62 28,-684 5.41,-649.22 0,-636.47 0,-595 0,-595 0,-595 0,-161 0,-102.9 58.95,-55.47 96.07,-33.03"/>
</g>
<!-- x41x127 -->
<g id="node10" class="node">
<title>x41x127</title>
<ellipse fill="none" stroke="black" cx="97" cy="-666" rx="50.89" ry="18"/>
<text text-anchor="middle" x="97" y="-662.3" font-family="Times,serif" font-size="14.00">x41x127</text>
</g>
<!-- x11x101&#45;&#45;x41x127 -->
<g id="edge10" class="edge">
<title>x11x101&#45;&#45;x41x127</title>
<path fill="none" stroke="black" d="M91.12,-720.05C89.97,-709.21 89.96,-695.18 91.09,-684.28"/>
</g>
<!-- x19x85&#45;&#45;x15x65 -->
<g id="edge15" class="edge">
<title>x19x85&#45;&#45;x15x65</title>
<path fill="none" stroke="black" d="M108.71,-828.05C112,-854.71 112,-907.89 112,-953 112,-1459 112,-1459 112,-1459 112,-1504.11 112,-1557.29 108.71,-1583.95"/>
</g>
<!-- x19x85&#45;&#45;x11x101 -->
<g id="edge14" class="edge">
<title>x19x85&#45;&#45;x11x101</title>
<path fill="none" stroke="black" d="M95.67,-792.05C93.59,-781.21 92.38,-767.18 92.57,-756.28"/>
</g>
<!-- x39x87 -->
<g id="node12" class="node">
<title>x39x87</title>
<ellipse fill="none" stroke="black" cx="185" cy="-882" rx="44.69" ry="18"/>
<text text-anchor="middle" x="185" y="-878.3" font-family="Times,serif" font-size="14.00">x39x87</text>
</g>
<!-- x19x85&#45;&#45;x39x87 -->
<g id="edge16" class="edge">
<title>x19x85&#45;&#45;x39x87</title>
<path fill="none" stroke="black" d="M125.86,-825.72C140.69,-837.14 159.29,-852.97 171.78,-864.76"/>
</g>
<!-- x37x111&#45;&#45;x11x101 -->
<g id="edge28" class="edge">
<title>x37x111&#45;&#45;x11x101</title>
<path fill="none" stroke="black" d="M105.23,-34.73C74.08,-57.82 18,-104.34 18,-161 18,-595 18,-595 18,-595 18,-636.47 23.41,-649.22 46,-684 55.39,-698.45 69.76,-711.34 81.06,-720.79"/>
</g>
<!-- x37x111&#45;&#45;x41x127 -->
<g id="edge30" class="edge">
<title>x37x111&#45;&#45;x41x127</title>
<path fill="none" stroke="black" d="M125.1,-36.27C120.15,-62.79 106,-115.27 106,-161 106,-523 106,-523 106,-523 106,-568.11 106,-621.29 102.71,-647.95"/>
</g>
<!-- x37x111&#45;&#45;x39x87 -->
<g id="edge29" class="edge">
<title>x37x111&#45;&#45;x39x87</title>
<path fill="none" stroke="black" d="M136.24,-35.84C147.69,-62.21 162,-115.02 162,-161 162,-523 162,-523 162,-523 162,-654.67 183.74,-812.49 186.34,-863.91"/>
</g>
<!-- x55x109 -->
<g id="node16" class="node">
<title>x55x109</title>
<ellipse fill="none" stroke="black" cx="253" cy="-90" rx="50.89" ry="18"/>
<text text-anchor="middle" x="253" y="-86.3" font-family="Times,serif" font-size="14.00">x55x109</text>
</g>
<!-- x37x111&#45;&#45;x55x109 -->
<g id="edge31" class="edge">
<title>x37x111&#45;&#45;x55x109</title>
<path fill="none" stroke="black" d="M155.47,-32.67C178.61,-44.44 209.71,-61.4 230.61,-73.64"/>
</g>
<!-- x41x127&#45;&#45;x11x101 -->
<g id="edge36" class="edge">
<title>x41x127&#45;&#45;x11x101</title>
<path fill="none" stroke="black" d="M102.91,-684.28C104.04,-695.18 104.03,-709.21 102.88,-720.05"/>
</g>
<!-- x41x127&#45;&#45;x37x111 -->
<g id="edge37" class="edge">
<title>x41x127&#45;&#45;x37x111</title>
<path fill="none" stroke="black" d="M91.29,-647.95C88,-621.29 88,-568.11 88,-523 88,-523 88,-523 88,-161 88,-115.02 102.31,-62.21 113.76,-35.84"/>
</g>
<!-- x55x133 -->
<g id="node18" class="node">
<title>x55x133</title>
<ellipse fill="none" stroke="black" cx="297" cy="-594" rx="50.89" ry="18"/>
<text text-anchor="middle" x="297" y="-590.3" font-family="Times,serif" font-size="14.00">x55x133</text>
</g>
<!-- x41x127&#45;&#45;x55x133 -->
<g id="edge38" class="edge">
<title>x41x127&#45;&#45;x55x133</title>
<path fill="none" stroke="black" d="M129.21,-651.83C164.9,-638.68 222.12,-618.69 259.71,-606.26"/>
</g>
<!-- x29x53&#45;&#45;x15x65 -->
<g id="edge21" class="edge">
<title>x29x53&#45;&#45;x15x65</title>
<path fill="none" stroke="black" d="M171.72,-1547.29C159.28,-1559.03 140.8,-1574.76 126.03,-1586.15"/>
</g>
<!-- x29x53&#45;&#45;x29x37 -->
<g id="edge22" class="edge">
<title>x29x53&#45;&#45;x29x37</title>
<path fill="none" stroke="black" d="M188.86,-1547.94C192.71,-1587.89 192.71,-1687.68 188.88,-1727.85"/>
</g>
<!-- x29x53&#45;&#45;x39x87 -->
<g id="edge23" class="edge">
<title>x29x53&#45;&#45;x39x87</title>
<path fill="none" stroke="black" d="M179.29,-1511.95C176,-1485.29 176,-1432.11 176,-1387 176,-1387 176,-1387 176,-1025 176,-979.89 176,-926.71 179.29,-900.05"/>
</g>
<!-- x63x57 -->
<g id="node14" class="node">
<title>x63x57</title>
<ellipse fill="none" stroke="black" cx="267" cy="-1458" rx="44.69" ry="18"/>
<text text-anchor="middle" x="267" y="-1454.3" font-family="Times,serif" font-size="14.00">x63x57</text>
</g>
<!-- x29x53&#45;&#45;x63x57 -->
<g id="edge24" class="edge">
<title>x29x53&#45;&#45;x63x57</title>
<path fill="none" stroke="black" d="M198.22,-1512.76C210.71,-1500.97 229.31,-1485.14 244.14,-1473.72"/>
</g>
<!-- x39x87&#45;&#45;x19x85 -->
<g id="edge32" class="edge">
<title>x39x87&#45;&#45;x19x85</title>
<path fill="none" stroke="black" d="M161.97,-866.15C147.2,-854.76 128.72,-839.03 116.28,-827.29"/>
</g>
<!-- x39x87&#45;&#45;x37x111 -->
<g id="edge34" class="edge">
<title>x39x87&#45;&#45;x37x111</title>
<path fill="none" stroke="black" d="M178.42,-863.91C165.74,-812.49 144,-654.67 144,-523 144,-523 144,-523 144,-161 144,-115.27 129.85,-62.79 124.9,-36.27"/>
</g>
<!-- x39x87&#45;&#45;x29x53 -->
<g id="edge33" class="edge">
<title>x39x87&#45;&#45;x29x53</title>
<path fill="none" stroke="black" d="M190.71,-900.05C194,-926.71 194,-979.89 194,-1025 194,-1387 194,-1387 194,-1387 194,-1432.11 194,-1485.29 190.71,-1511.95"/>
</g>
<!-- x53x77 -->
<g id="node17" class="node">
<title>x53x77</title>
<ellipse fill="none" stroke="black" cx="267" cy="-954" rx="44.69" ry="18"/>
<text text-anchor="middle" x="267" y="-950.3" font-family="Times,serif" font-size="14.00">x53x77</text>
</g>
<!-- x39x87&#45;&#45;x53x77 -->
<g id="edge35" class="edge">
<title>x39x87&#45;&#45;x53x77</title>
<path fill="none" stroke="black" d="M207.86,-897.72C222.69,-909.14 241.29,-924.97 253.78,-936.76"/>
</g>
<!-- x53x43&#45;&#45;x29x37 -->
<g id="edge39" class="edge">
<title>x53x43&#45;&#45;x29x37</title>
<path fill="none" stroke="black" d="M243.97,-1802.15C229.2,-1790.76 210.72,-1775.03 198.28,-1763.29"/>
</g>
<!-- x53x43&#45;&#45;x63x57 -->
<g id="edge41" class="edge">
<title>x53x43&#45;&#45;x63x57</title>
<path fill="none" stroke="black" d="M261.29,-1799.95C258,-1773.29 258,-1720.11 258,-1675 258,-1675 258,-1675 258,-1601 258,-1555.89 258,-1502.71 261.29,-1476.05"/>
</g>
<!-- x53x43&#45;&#45;x55x5 -->
<g id="edge40" class="edge">
<title>x53x43&#45;&#45;x55x5</title>
<path fill="none" stroke="black" d="M272.71,-1836.05C276,-1862.71 276,-1915.89 276,-1961 276,-2107 276,-2107 276,-2107 276,-2152.11 276,-2205.29 272.71,-2231.95"/>
</g>
<!-- x81x35 -->
<g id="node19" class="node">
<title>x81x35</title>
<ellipse fill="none" stroke="black" cx="349" cy="-1890" rx="44.69" ry="18"/>
<text text-anchor="middle" x="349" y="-1886.3" font-family="Times,serif" font-size="14.00">x81x35</text>
</g>
<!-- x53x43&#45;&#45;x81x35 -->
<g id="edge42" class="edge">
<title>x53x43&#45;&#45;x81x35</title>
<path fill="none" stroke="black" d="M289.86,-1833.72C304.69,-1845.14 323.29,-1860.97 335.78,-1872.76"/>
</g>
<!-- x63x57&#45;&#45;x29x53 -->
<g id="edge57" class="edge">
<title>x63x57&#45;&#45;x29x53</title>
<path fill="none" stroke="black" d="M253.72,-1475.29C241.28,-1487.03 222.8,-1502.76 208.03,-1514.15"/>
</g>
<!-- x63x57&#45;&#45;x53x43 -->
<g id="edge58" class="edge">
<title>x63x57&#45;&#45;x53x43</title>
<path fill="none" stroke="black" d="M272.71,-1476.05C276,-1502.71 276,-1555.89 276,-1601 276,-1675 276,-1675 276,-1675 276,-1720.11 276,-1773.29 272.71,-1799.95"/>
</g>
<!-- x63x57&#45;&#45;x53x77 -->
<g id="edge59" class="edge">
<title>x63x57&#45;&#45;x53x77</title>
<path fill="none" stroke="black" d="M261.29,-1439.95C258,-1413.29 258,-1360.11 258,-1315 258,-1315 258,-1315 258,-1097 258,-1051.89 258,-998.71 261.29,-972.05"/>
</g>
<!-- x83x61 -->
<g id="node24" class="node">
<title>x83x61</title>
<ellipse fill="none" stroke="black" cx="349" cy="-1386" rx="44.69" ry="18"/>
<text text-anchor="middle" x="349" y="-1382.3" font-family="Times,serif" font-size="14.00">x83x61</text>
</g>
<!-- x63x57&#45;&#45;x83x61 -->
<g id="edge60" class="edge">
<title>x63x57&#45;&#45;x83x61</title>
<path fill="none" stroke="black" d="M280.22,-1440.76C292.71,-1428.97 311.31,-1413.14 326.14,-1401.72"/>
</g>
<!-- x55x5&#45;&#45;x33x15 -->
<g id="edge47" class="edge">
<title>x55x5&#45;&#45;x33x15</title>
<path fill="none" stroke="black" d="M253.99,-2267.04C241.54,-2278.81 222.91,-2294.68 208.03,-2306.15"/>
</g>
<!-- x55x5&#45;&#45;x53x43 -->
<g id="edge48" class="edge">
<title>x55x5&#45;&#45;x53x43</title>
<path fill="none" stroke="black" d="M261.29,-2231.95C258,-2205.29 258,-2152.11 258,-2107 258,-2107 258,-2107 258,-1961 258,-1915.89 258,-1862.71 261.29,-1836.05"/>
</g>
<!-- x89x9 -->
<g id="node21" class="node">
<title>x89x9</title>
<ellipse fill="none" stroke="black" cx="349" cy="-2178" rx="38.99" ry="18"/>
<text text-anchor="middle" x="349" y="-2174.3" font-family="Times,serif" font-size="14.00">x89x9</text>
</g>
<!-- x55x5&#45;&#45;x89x9 -->
<g id="edge49" class="edge">
<title>x55x5&#45;&#45;x89x9</title>
<path fill="none" stroke="black" d="M280.22,-2232.76C292.97,-2220.73 312.08,-2204.49 327.05,-2193.02"/>
</g>
<!-- x55x109&#45;&#45;x37x111 -->
<g id="edge50" class="edge">
<title>x55x109&#45;&#45;x37x111</title>
<path fill="none" stroke="black" d="M222.86,-75.5C199.72,-63.74 168.47,-46.7 147.46,-34.41"/>
</g>
<!-- x55x109&#45;&#45;x53x77 -->
<g id="edge51" class="edge">
<title>x55x109&#45;&#45;x53x77</title>
<path fill="none" stroke="black" d="M249.7,-108.39C240,-134.64 218,-186.29 218,-233 218,-523 218,-523 218,-523 218,-684.96 258.91,-878.17 266.68,-935.91"/>
</g>
<!-- x55x109&#45;&#45;x55x133 -->
<g id="edge52" class="edge">
<title>x55x109&#45;&#45;x55x133</title>
<path fill="none" stroke="black" d="M261.08,-108.01C267.87,-134.62 274,-187.72 274,-233 274,-451 274,-451 274,-451 274,-496.99 290.17,-549.36 296.29,-575.79"/>
</g>
<!-- x75x101 -->
<g id="node22" class="node">
<title>x75x101</title>
<ellipse fill="none" stroke="black" cx="365" cy="-162" rx="50.89" ry="18"/>
<text text-anchor="middle" x="365" y="-158.3" font-family="Times,serif" font-size="14.00">x75x101</text>
</g>
<!-- x55x109&#45;&#45;x75x101 -->
<g id="edge53" class="edge">
<title>x55x109&#45;&#45;x75x101</title>
<path fill="none" stroke="black" d="M281.32,-105.23C301.46,-116.86 327.79,-133.28 345.61,-145.29"/>
</g>
<!-- x53x77&#45;&#45;x39x87 -->
<g id="edge43" class="edge">
<title>x53x77&#45;&#45;x39x87</title>
<path fill="none" stroke="black" d="M243.97,-938.15C229.2,-926.76 210.72,-911.03 198.28,-899.29"/>
</g>
<!-- x53x77&#45;&#45;x63x57 -->
<g id="edge45" class="edge">
<title>x53x77&#45;&#45;x63x57</title>
<path fill="none" stroke="black" d="M272.71,-972.05C276,-998.71 276,-1051.89 276,-1097 276,-1315 276,-1315 276,-1315 276,-1360.11 276,-1413.29 272.71,-1439.95"/>
</g>
<!-- x53x77&#45;&#45;x55x109 -->
<g id="edge44" class="edge">
<title>x53x77&#45;&#45;x55x109</title>
<path fill="none" stroke="black" d="M259.34,-935.91C240.91,-878.17 200,-684.96 200,-523 200,-523 200,-523 200,-233 200,-185.77 222.48,-133.5 238.59,-107.53"/>
</g>
<!-- x77x81 -->
<g id="node20" class="node">
<title>x77x81</title>
<ellipse fill="none" stroke="black" cx="367" cy="-1026" rx="44.69" ry="18"/>
<text text-anchor="middle" x="367" y="-1022.3" font-family="Times,serif" font-size="14.00">x77x81</text>
</g>
<!-- x53x77&#45;&#45;x77x81 -->
<g id="edge46" class="edge">
<title>x53x77&#45;&#45;x77x81</title>
<path fill="none" stroke="black" d="M292.41,-968.93C310.53,-980.52 334.18,-997.01 350.07,-1009.12"/>
</g>
<!-- x55x133&#45;&#45;x41x127 -->
<g id="edge54" class="edge">
<title>x55x133&#45;&#45;x41x127</title>
<path fill="none" stroke="black" d="M264.9,-608.13C229.21,-621.28 171.88,-641.31 134.25,-653.75"/>
</g>
<!-- x55x133&#45;&#45;x55x109 -->
<g id="edge55" class="edge">
<title>x55x133&#45;&#45;x55x109</title>
<path fill="none" stroke="black" d="M284.97,-576.23C272.35,-549.94 256,-497.25 256,-451 256,-451 256,-451 256,-233 256,-187.72 249.87,-134.62 249.66,-108.01"/>
</g>
<!-- x79x135 -->
<g id="node23" class="node">
<title>x79x135</title>
<ellipse fill="none" stroke="black" cx="409" cy="-522" rx="50.89" ry="18"/>
<text text-anchor="middle" x="409" y="-518.3" font-family="Times,serif" font-size="14.00">x79x135</text>
</g>
<!-- x55x133&#45;&#45;x79x135 -->
<g id="edge56" class="edge">
<title>x55x133&#45;&#45;x79x135</title>
<path fill="none" stroke="black" d="M316.39,-577.29C334.21,-565.28 360.54,-548.86 380.68,-537.23"/>
</g>
<!-- x81x35&#45;&#45;x53x43 -->
<g id="edge72" class="edge">
<title>x81x35&#45;&#45;x53x43</title>
<path fill="none" stroke="black" d="M325.97,-1874.15C311.2,-1862.76 292.72,-1847.03 280.28,-1835.29"/>
</g>
<!-- x81x35&#45;&#45;x89x9 -->
<g id="edge74" class="edge">
<title>x81x35&#45;&#45;x89x9</title>
<path fill="none" stroke="black" d="M352.44,-1908.31C356.86,-1959.41 356.85,-2109.22 352.41,-2159.97"/>
</g>
<!-- x81x35&#45;&#45;x83x61 -->
<g id="edge73" class="edge">
<title>x81x35&#45;&#45;x83x61</title>
<path fill="none" stroke="black" d="M343.29,-1871.95C340,-1845.29 340,-1792.11 340,-1747 340,-1747 340,-1747 340,-1529 340,-1483.89 340,-1430.71 343.29,-1404.05"/>
</g>
<!-- x107x37 -->
<g id="node28" class="node">
<title>x107x37</title>
<ellipse fill="none" stroke="black" cx="437" cy="-1962" rx="50.89" ry="18"/>
<text text-anchor="middle" x="437" y="-1958.3" font-family="Times,serif" font-size="14.00">x107x37</text>
</g>
<!-- x81x35&#45;&#45;x107x37 -->
<g id="edge75" class="edge">
<title>x81x35&#45;&#45;x107x37</title>
<path fill="none" stroke="black" d="M372.6,-1905.34C388.33,-1916.68 408.34,-1932.52 421.99,-1944.41"/>
</g>
<!-- x77x81&#45;&#45;x53x77 -->
<g id="edge65" class="edge">
<title>x77x81&#45;&#45;x53x77</title>
<path fill="none" stroke="black" d="M341.48,-1011C323.4,-999.43 299.85,-983 283.99,-970.93"/>
</g>
<!-- x77x81&#45;&#45;x75x101 -->
<g id="edge66" class="edge">
<title>x77x81&#45;&#45;x75x101</title>
<path fill="none" stroke="black" d="M364.88,-1007.6C366.9,-980.92 376,-928.23 376,-883 376,-883 376,-883 376,-665 376,-565.73 312,-550.27 312,-451 312,-451 312,-451 312,-305 312,-257.77 334.48,-205.5 350.59,-179.53"/>
</g>
<!-- x77x81&#45;&#45;x83x61 -->
<g id="edge67" class="edge">
<title>x77x81&#45;&#45;x83x61</title>
<path fill="none" stroke="black" d="M369.12,-1044.4C367.1,-1071.08 358,-1123.77 358,-1169 358,-1243 358,-1243 358,-1243 358,-1288.11 358,-1341.29 354.71,-1367.95"/>
</g>
<!-- x111x83 -->
<g id="node26" class="node">
<title>x111x83</title>
<ellipse fill="none" stroke="black" cx="467" cy="-1098" rx="50.89" ry="18"/>
<text text-anchor="middle" x="467" y="-1094.3" font-family="Times,serif" font-size="14.00">x111x83</text>
</g>
<!-- x77x81&#45;&#45;x111x83 -->
<g id="edge68" class="edge">
<title>x77x81&#45;&#45;x111x83</title>
<path fill="none" stroke="black" d="M392.56,-1041.02C410.48,-1052.49 433.76,-1068.73 449.61,-1080.76"/>
</g>
<!-- x89x9&#45;&#45;x55x5 -->
<g id="edge80" class="edge">
<title>x89x9&#45;&#45;x55x5</title>
<path fill="none" stroke="black" d="M335.92,-2195.1C323.23,-2207.1 304.14,-2223.33 289.14,-2234.83"/>
</g>
<!-- x89x9&#45;&#45;x81x35 -->
<g id="edge81" class="edge">
<title>x89x9&#45;&#45;x81x35</title>
<path fill="none" stroke="black" d="M345.59,-2159.97C341.15,-2109.22 341.14,-1959.41 345.56,-1908.31"/>
</g>
<!-- x109x13 -->
<g id="node30" class="node">
<title>x109x13</title>
<ellipse fill="none" stroke="black" cx="437" cy="-2106" rx="50.89" ry="18"/>
<text text-anchor="middle" x="437" y="-2102.3" font-family="Times,serif" font-size="14.00">x109x13</text>
</g>
<!-- x89x9&#45;&#45;x109x13 -->
<g id="edge82" class="edge">
<title>x89x9&#45;&#45;x109x13</title>
<path fill="none" stroke="black" d="M363.21,-2161.12C376.66,-2149.34 396.74,-2133.39 412.68,-2121.86"/>
</g>
<!-- x75x101&#45;&#45;x55x109 -->
<g id="edge61" class="edge">
<title>x75x101&#45;&#45;x55x109</title>
<path fill="none" stroke="black" d="M336.79,-146.83C316.72,-135.25 290.45,-118.88 272.61,-106.85"/>
</g>
<!-- x75x101&#45;&#45;x77x81 -->
<g id="edge62" class="edge">
<title>x75x101&#45;&#45;x77x81</title>
<path fill="none" stroke="black" d="M361.7,-180.39C352,-206.64 330,-258.29 330,-305 330,-451 330,-451 330,-451 330,-550.27 394,-565.73 394,-665 394,-883 394,-883 394,-883 394,-928.48 384.8,-981.5 376.27,-1008.04"/>
</g>
<!-- x75x101&#45;&#45;x79x135 -->
<g id="edge63" class="edge">
<title>x75x101&#45;&#45;x79x135</title>
<path fill="none" stroke="black" d="M373.08,-180.01C379.87,-206.62 386,-259.72 386,-305 386,-379 386,-379 386,-379 386,-424.99 402.17,-477.36 408.29,-503.79"/>
</g>
<!-- x113x99 -->
<g id="node25" class="node">
<title>x113x99</title>
<ellipse fill="none" stroke="black" cx="477" cy="-234" rx="50.89" ry="18"/>
<text text-anchor="middle" x="477" y="-230.3" font-family="Times,serif" font-size="14.00">x113x99</text>
</g>
<!-- x75x101&#45;&#45;x113x99 -->
<g id="edge64" class="edge">
<title>x75x101&#45;&#45;x113x99</title>
<path fill="none" stroke="black" d="M393.32,-177.23C413.46,-188.86 439.79,-205.28 457.61,-217.29"/>
</g>
<!-- x79x135&#45;&#45;x55x133 -->
<g id="edge69" class="edge">
<title>x79x135&#45;&#45;x55x133</title>
<path fill="none" stroke="black" d="M389.39,-538.85C371.55,-550.88 345.28,-567.25 325.21,-578.83"/>
</g>
<!-- x79x135&#45;&#45;x75x101 -->
<g id="edge70" class="edge">
<title>x79x135&#45;&#45;x75x101</title>
<path fill="none" stroke="black" d="M396.97,-504.23C384.35,-477.94 368,-425.25 368,-379 368,-379 368,-379 368,-305 368,-259.72 361.87,-206.62 361.66,-180.01"/>
</g>
<!-- x103x125 -->
<g id="node27" class="node">
<title>x103x125</title>
<ellipse fill="none" stroke="black" cx="527" cy="-450" rx="56.59" ry="18"/>
<text text-anchor="middle" x="527" y="-446.3" font-family="Times,serif" font-size="14.00">x103x125</text>
</g>
<!-- x79x135&#45;&#45;x103x125 -->
<g id="edge71" class="edge">
<title>x79x135&#45;&#45;x103x125</title>
<path fill="none" stroke="black" d="M429.47,-505.46C448.15,-493.54 475.74,-477.2 496.9,-465.54"/>
</g>
<!-- x83x61&#45;&#45;x63x57 -->
<g id="edge76" class="edge">
<title>x83x61&#45;&#45;x63x57</title>
<path fill="none" stroke="black" d="M335.72,-1403.29C323.28,-1415.03 304.8,-1430.76 290.03,-1442.15"/>
</g>
<!-- x83x61&#45;&#45;x81x35 -->
<g id="edge78" class="edge">
<title>x83x61&#45;&#45;x81x35</title>
<path fill="none" stroke="black" d="M354.71,-1404.05C358,-1430.71 358,-1483.89 358,-1529 358,-1747 358,-1747 358,-1747 358,-1792.11 358,-1845.29 354.71,-1871.95"/>
</g>
<!-- x83x61&#45;&#45;x77x81 -->
<g id="edge77" class="edge">
<title>x83x61&#45;&#45;x77x81</title>
<path fill="none" stroke="black" d="M343.29,-1367.95C340,-1341.29 340,-1288.11 340,-1243 340,-1243 340,-1243 340,-1169 340,-1123.52 349.2,-1070.5 357.73,-1043.96"/>
</g>
<!-- x103x67 -->
<g id="node29" class="node">
<title>x103x67</title>
<ellipse fill="none" stroke="black" cx="437" cy="-1314" rx="50.89" ry="18"/>
<text text-anchor="middle" x="437" y="-1310.3" font-family="Times,serif" font-size="14.00">x103x67</text>
</g>
<!-- x83x61&#45;&#45;x103x67 -->
<g id="edge79" class="edge">
<title>x83x61&#45;&#45;x103x67</title>
<path fill="none" stroke="black" d="M363.61,-1368.76C377.02,-1357.05 396.8,-1341.36 412.55,-1329.95"/>
</g>
<!-- x113x99&#45;&#45;x75x101 -->
<g id="edge101" class="edge">
<title>x113x99&#45;&#45;x75x101</title>
<path fill="none" stroke="black" d="M448.79,-218.83C428.72,-207.25 402.45,-190.88 384.61,-178.85"/>
</g>
<!-- x113x99&#45;&#45;x111x83 -->
<g id="edge103" class="edge">
<title>x113x99&#45;&#45;x111x83</title>
<path fill="none" stroke="black" d="M478.12,-252.04C474.81,-290.66 458.67,-387.7 470,-468 478.08,-525.25 506,-535.19 506,-593 506,-955 506,-955 506,-955 506,-1001.11 490.67,-1053.86 478.64,-1080.19"/>
</g>
<!-- x113x99&#45;&#45;x103x125 -->
<g id="edge102" class="edge">
<title>x113x99&#45;&#45;x103x125</title>
<path fill="none" stroke="black" d="M484.81,-251.94C498,-291.89 521.32,-391.68 526.87,-431.85"/>
</g>
<!-- x129x103 -->
<g id="node35" class="node">
<title>x129x103</title>
<ellipse fill="none" stroke="black" cx="714" cy="-306" rx="56.59" ry="18"/>
<text text-anchor="middle" x="714" y="-302.3" font-family="Times,serif" font-size="14.00">x129x103</text>
</g>
<!-- x113x99&#45;&#45;x129x103 -->
<g id="edge104" class="edge">
<title>x113x99&#45;&#45;x129x103</title>
<path fill="none" stroke="black" d="M516.93,-245.33C561.59,-257.85 633.12,-278.94 676.68,-292.4"/>
</g>
<!-- x111x83&#45;&#45;x77x81 -->
<g id="edge97" class="edge">
<title>x111x83&#45;&#45;x77x81</title>
<path fill="none" stroke="black" d="M440.69,-1082.5C422.73,-1070.96 399.65,-1054.85 384.02,-1042.95"/>
</g>
<!-- x111x83&#45;&#45;x113x99 -->
<g id="edge99" class="edge">
<title>x111x83&#45;&#45;x113x99</title>
<path fill="none" stroke="black" d="M467.3,-1079.76C472.84,-1053.28 488,-1000.86 488,-955 488,-955 488,-955 488,-593 488,-535.19 460.08,-525.25 452,-468 440.67,-387.7 456.81,-290.66 468.7,-252.04"/>
</g>
<!-- x111x83&#45;&#45;x103x67 -->
<g id="edge98" class="edge">
<title>x111x83&#45;&#45;x103x67</title>
<path fill="none" stroke="black" d="M468.47,-1116.23C466.66,-1156.38 452.73,-1255.78 443.28,-1295.85"/>
</g>
<!-- x125x83 -->
<g id="node34" class="node">
<title>x125x83</title>
<ellipse fill="none" stroke="black" cx="525" cy="-1170" rx="50.89" ry="18"/>
<text text-anchor="middle" x="525" y="-1166.3" font-family="Times,serif" font-size="14.00">x125x83</text>
</g>
<!-- x111x83&#45;&#45;x125x83 -->
<g id="edge100" class="edge">
<title>x111x83&#45;&#45;x125x83</title>
<path fill="none" stroke="black" d="M485.87,-1114.83C496.34,-1125.92 508.65,-1140.73 516.84,-1152.05"/>
</g>
<!-- x103x125&#45;&#45;x79x135 -->
<g id="edge87" class="edge">
<title>x103x125&#45;&#45;x79x135</title>
<path fill="none" stroke="black" d="M506.19,-466.76C487.13,-478.9 459.01,-495.54 437.82,-507.17"/>
</g>
<!-- x103x125&#45;&#45;x113x99 -->
<g id="edge88" class="edge">
<title>x103x125&#45;&#45;x113x99</title>
<path fill="none" stroke="black" d="M519.12,-431.85C505.93,-391.78 482.7,-292.38 477.14,-252.23"/>
</g>
<!-- x137x129 -->
<g id="node32" class="node">
<title>x137x129</title>
<ellipse fill="none" stroke="black" cx="583" cy="-378" rx="56.59" ry="18"/>
<text text-anchor="middle" x="583" y="-374.3" font-family="Times,serif" font-size="14.00">x137x129</text>
</g>
<!-- x103x125&#45;&#45;x137x129 -->
<g id="edge89" class="edge">
<title>x103x125&#45;&#45;x137x129</title>
<path fill="none" stroke="black" d="M534.68,-432.05C542.43,-420.89 554.09,-406.34 564.15,-395.31"/>
</g>
<!-- x107x37&#45;&#45;x81x35 -->
<g id="edge90" class="edge">
<title>x107x37&#45;&#45;x81x35</title>
<path fill="none" stroke="black" d="M412.7,-1946.15C396.95,-1934.76 377.12,-1919.03 363.67,-1907.29"/>
</g>
<!-- x107x37&#45;&#45;x103x67 -->
<g id="edge91" class="edge">
<title>x107x37&#45;&#45;x103x67</title>
<path fill="none" stroke="black" d="M431.29,-1943.95C428,-1917.29 428,-1864.11 428,-1819 428,-1819 428,-1819 428,-1457 428,-1411.89 428,-1358.71 431.29,-1332.05"/>
</g>
<!-- x107x37&#45;&#45;x109x13 -->
<g id="edge92" class="edge">
<title>x107x37&#45;&#45;x109x13</title>
<path fill="none" stroke="black" d="M441.59,-1980.19C444.47,-2007.52 444.47,-2060.58 441.58,-2087.87"/>
</g>
<!-- x133x43 -->
<g id="node33" class="node">
<title>x133x43</title>
<ellipse fill="none" stroke="black" cx="525" cy="-2034" rx="50.89" ry="18"/>
<text text-anchor="middle" x="525" y="-2030.3" font-family="Times,serif" font-size="14.00">x133x43</text>
</g>
<!-- x107x37&#45;&#45;x133x43 -->
<g id="edge93" class="edge">
<title>x107x37&#45;&#45;x133x43</title>
<path fill="none" stroke="black" d="M461.57,-1978.04C477.14,-1989.32 496.62,-2004.77 509.99,-2016.41"/>
</g>
<!-- x103x67&#45;&#45;x83x61 -->
<g id="edge83" class="edge">
<title>x103x67&#45;&#45;x83x61</title>
<path fill="none" stroke="black" d="M422.15,-1331.45C408.56,-1343.29 388.59,-1359.12 372.83,-1370.5"/>
</g>
<!-- x103x67&#45;&#45;x111x83 -->
<g id="edge85" class="edge">
<title>x103x67&#45;&#45;x111x83</title>
<path fill="none" stroke="black" d="M435.53,-1295.85C437.32,-1255.68 451.32,-1155.89 460.77,-1115.94"/>
</g>
<!-- x103x67&#45;&#45;x107x37 -->
<g id="edge84" class="edge">
<title>x103x67&#45;&#45;x107x37</title>
<path fill="none" stroke="black" d="M442.71,-1332.05C446,-1358.71 446,-1411.89 446,-1457 446,-1819 446,-1819 446,-1819 446,-1864.11 446,-1917.29 442.71,-1943.95"/>
</g>
<!-- x125x61 -->
<g id="node31" class="node">
<title>x125x61</title>
<ellipse fill="none" stroke="black" cx="525" cy="-1242" rx="50.89" ry="18"/>
<text text-anchor="middle" x="525" y="-1238.3" font-family="Times,serif" font-size="14.00">x125x61</text>
</g>
<!-- x103x67&#45;&#45;x125x61 -->
<g id="edge86" class="edge">
<title>x103x67&#45;&#45;x125x61</title>
<path fill="none" stroke="black" d="M452.01,-1296.41C465.38,-1284.77 484.86,-1269.32 500.43,-1258.04"/>
</g>
<!-- x109x13&#45;&#45;x89x9 -->
<g id="edge94" class="edge">
<title>x109x13&#45;&#45;x89x9</title>
<path fill="none" stroke="black" d="M422.37,-2123.26C408.51,-2135.36 387.87,-2151.7 371.89,-2163.17"/>
</g>
<!-- x109x13&#45;&#45;x107x37 -->
<g id="edge95" class="edge">
<title>x109x13&#45;&#45;x107x37</title>
<path fill="none" stroke="black" d="M432.42,-2087.87C429.53,-2060.58 429.53,-2007.52 432.41,-1980.19"/>
</g>
<!-- x109x13&#45;&#45;x133x43 -->
<g id="edge96" class="edge">
<title>x109x13&#45;&#45;x133x43</title>
<path fill="none" stroke="black" d="M452.01,-2088.41C465.38,-2076.77 484.86,-2061.32 500.43,-2050.04"/>
</g>
<!-- x125x61&#45;&#45;x103x67 -->
<g id="edge105" class="edge">
<title>x125x61&#45;&#45;x103x67</title>
<path fill="none" stroke="black" d="M510.33,-1259.29C496.88,-1271.03 477.05,-1286.76 461.3,-1298.15"/>
</g>
<!-- x125x61&#45;&#45;x133x43 -->
<g id="edge107" class="edge">
<title>x125x61&#45;&#45;x133x43</title>
<path fill="none" stroke="black" d="M530.71,-1260.05C534,-1286.71 534,-1339.89 534,-1385 534,-1891 534,-1891 534,-1891 534,-1936.11 534,-1989.29 530.71,-2015.95"/>
</g>
<!-- x125x61&#45;&#45;x125x83 -->
<g id="edge106" class="edge">
<title>x125x61&#45;&#45;x125x83</title>
<path fill="none" stroke="black" d="M519.12,-1224.05C517.97,-1213.21 517.96,-1199.18 519.09,-1188.28"/>
</g>
<!-- x137x129&#45;&#45;x103x125 -->
<g id="edge117" class="edge">
<title>x137x129&#45;&#45;x103x125</title>
<path fill="none" stroke="black" d="M575.2,-396.12C567.43,-407.29 555.81,-421.78 545.79,-432.76"/>
</g>
<!-- x137x129&#45;&#45;x129x103 -->
<g id="edge118" class="edge">
<title>x137x129&#45;&#45;x129x103</title>
<path fill="none" stroke="black" d="M606.35,-361.46C627.53,-349.38 658.7,-332.76 682.14,-321.07"/>
</g>
<!-- x139x140 -->
<g id="node36" class="node">
<title>x139x140</title>
<ellipse fill="none" stroke="black" cx="583" cy="-306" rx="56.59" ry="18"/>
<text text-anchor="middle" x="583" y="-302.3" font-family="Times,serif" font-size="14.00">x139x140</text>
</g>
<!-- x137x129&#45;&#45;x139x140 -->
<g id="edge119" class="edge">
<title>x137x129&#45;&#45;x139x140</title>
<path fill="none" stroke="black" d="M577.12,-360.05C575.97,-349.21 575.96,-335.18 577.09,-324.28"/>
</g>
<!-- x133x43&#45;&#45;x107x37 -->
<g id="edge114" class="edge">
<title>x133x43&#45;&#45;x107x37</title>
<path fill="none" stroke="black" d="M500.7,-2018.15C484.95,-2006.76 465.12,-1991.03 451.67,-1979.29"/>
</g>
<!-- x133x43&#45;&#45;x109x13 -->
<g id="edge115" class="edge">
<title>x133x43&#45;&#45;x109x13</title>
<path fill="none" stroke="black" d="M510.33,-2051.29C496.88,-2063.03 477.05,-2078.76 461.3,-2090.15"/>
</g>
<!-- x133x43&#45;&#45;x125x61 -->
<g id="edge116" class="edge">
<title>x133x43&#45;&#45;x125x61</title>
<path fill="none" stroke="black" d="M519.29,-2015.95C516,-1989.29 516,-1936.11 516,-1891 516,-1891 516,-1891 516,-1385 516,-1339.89 516,-1286.71 519.29,-1260.05"/>
</g>
<!-- x125x83&#45;&#45;x111x83 -->
<g id="edge108" class="edge">
<title>x125x83&#45;&#45;x111x83</title>
<path fill="none" stroke="black" d="M506.08,-1153.12C495.57,-1141.98 483.23,-1127.13 475.06,-1115.8"/>
</g>
<!-- x125x83&#45;&#45;x125x61 -->
<g id="edge109" class="edge">
<title>x125x83&#45;&#45;x125x61</title>
<path fill="none" stroke="black" d="M530.91,-1188.28C532.04,-1199.18 532.03,-1213.21 530.88,-1224.05"/>
</g>
<!-- x125x83&#45;&#45;x129x103 -->
<g id="edge110" class="edge">
<title>x125x83&#45;&#45;x129x103</title>
<path fill="none" stroke="black" d="M557.95,-1156.06C605.19,-1136.66 686,-1094.87 686,-1027 686,-1027 686,-1027 686,-449 686,-403.48 695.71,-350.48 704.53,-323.95"/>
</g>
<!-- x129x103&#45;&#45;x113x99 -->
<g id="edge111" class="edge">
<title>x129x103&#45;&#45;x113x99</title>
<path fill="none" stroke="black" d="M671.63,-293.99C626.18,-281.2 555,-260.2 512.41,-247.01"/>
</g>
<!-- x129x103&#45;&#45;x137x129 -->
<g id="edge113" class="edge">
<title>x129x103&#45;&#45;x137x129</title>
<path fill="none" stroke="black" d="M690.83,-322.43C669.6,-334.55 638.24,-351.27 614.72,-363"/>
</g>
<!-- x129x103&#45;&#45;x125x83 -->
<g id="edge112" class="edge">
<title>x129x103&#45;&#45;x125x83</title>
<path fill="none" stroke="black" d="M715.92,-324.39C713.6,-351.06 704,-403.73 704,-449 704,-1027 704,-1027 704,-1027 704,-1097.57 616.65,-1139.93 563.87,-1158.26"/>
</g>
<!-- x139x140&#45;&#45;x137x129 -->
<g id="edge120" class="edge">
<title>x139x140&#45;&#45;x137x129</title>
<path fill="none" stroke="black" d="M588.91,-324.28C590.04,-335.18 590.03,-349.21 588.88,-360.05"/>
</g>
</g>
</svg>
