<?xml version="1.0" encoding="UTF-8" standalone="no"?>
<!DOCTYPE svg PUBLIC "-//W3C//DTD SVG 1.1//EN"
 "http://www.w3.org/Graphics/SVG/1.1/DTD/svg11.dtd">
<!-- Generated by graphviz version 2.43.0 (0)
 -->
<!-- Title: G Pages: 1 -->
<svg width="584pt" height="404pt"
 viewBox="0.00 0.00 584.30 404.00" xmlns="http://www.w3.org/2000/svg" xmlns:xlink="http://www.w3.org/1999/xlink">
<g id="graph0" class="graph" transform="scale(1 1) rotate(0) translate(4 400)">
<title>G</title>
<polygon fill="white" stroke="transparent" points="-4,4 -4,-400 580.3,-400 580.3,4 -4,4"/>
<!-- jqt -->
<g id="node1" class="node">
<title>jqt</title>
<ellipse fill="none" stroke="black" cx="83.3" cy="-306" rx="27" ry="18"/>
<text text-anchor="middle" x="83.3" y="-302.3" font-family="Times,serif" font-size="14.00">jqt</text>
</g>
<!-- rhn -->
<g id="node2" class="node">
<title>rhn</title>
<ellipse fill="none" stroke="black" cx="82.3" cy="-234" rx="27" ry="18"/>
<text text-anchor="middle" x="82.3" y="-230.3" font-family="Times,serif" font-size="14.00">rhn</text>
</g>
<!-- jqt&#45;&#45;rhn -->
<g id="edge1" class="edge">
<title>jqt&#45;&#45;rhn</title>
<path fill="none" stroke="black" d="M83.05,-287.7C82.9,-276.85 82.7,-262.92 82.54,-252.1"/>
</g>
<!-- xhk -->
<g id="node3" class="node">
<title>xhk</title>
<ellipse fill="none" stroke="black" cx="27.3" cy="-90" rx="27.1" ry="18"/>
<text text-anchor="middle" x="27.3" y="-86.3" font-family="Times,serif" font-size="14.00">xhk</text>
</g>
<!-- jqt&#45;&#45;xhk -->
<g id="edge2" class="edge">
<title>jqt&#45;&#45;xhk</title>
<path fill="none" stroke="black" d="M69.74,-289.94C61.53,-279.92 51.64,-266.05 46.3,-252 27.39,-202.28 26.04,-138.22 26.63,-108.09"/>
</g>
<!-- nvd -->
<g id="node4" class="node">
<title>nvd</title>
<ellipse fill="none" stroke="black" cx="324.3" cy="-90" rx="27.9" ry="18"/>
<text text-anchor="middle" x="324.3" y="-86.3" font-family="Times,serif" font-size="14.00">nvd</text>
</g>
<!-- jqt&#45;&#45;nvd -->
<g id="edge3" class="edge">
<title>jqt&#45;&#45;nvd</title>
<path fill="none" stroke="black" d="M99.11,-290.96C142.78,-252.18 264.69,-143.93 308.43,-105.09"/>
</g>
<!-- rhn&#45;&#45;xhk -->
<g id="edge12" class="edge">
<title>rhn&#45;&#45;xhk</title>
<path fill="none" stroke="black" d="M75.88,-216.43C65.34,-189.22 44.47,-135.33 33.84,-107.9"/>
</g>
<!-- hfx -->
<g id="node9" class="node">
<title>hfx</title>
<ellipse fill="none" stroke="black" cx="138.3" cy="-18" rx="27" ry="18"/>
<text text-anchor="middle" x="138.3" y="-14.3" font-family="Times,serif" font-size="14.00">hfx</text>
</g>
<!-- rhn&#45;&#45;hfx -->
<g id="edge14" class="edge">
<title>rhn&#45;&#45;hfx</title>
<path fill="none" stroke="black" d="M85.55,-215.85C89.06,-197.86 94.99,-168.81 101.3,-144 111.23,-104.96 125.24,-59.78 132.85,-35.87"/>
</g>
<!-- bvb -->
<g id="node13" class="node">
<title>bvb</title>
<ellipse fill="none" stroke="black" cx="138.3" cy="-162" rx="27.9" ry="18"/>
<text text-anchor="middle" x="138.3" y="-158.3" font-family="Times,serif" font-size="14.00">bvb</text>
</g>
<!-- rhn&#45;&#45;bvb -->
<g id="edge13" class="edge">
<title>rhn&#45;&#45;bvb</title>
<path fill="none" stroke="black" d="M94.45,-217.81C103.71,-206.23 116.43,-190.34 125.78,-178.64"/>
</g>
<!-- xhk&#45;&#45;hfx -->
<g id="edge7" class="edge">
<title>xhk&#45;&#45;hfx</title>
<path fill="none" stroke="black" d="M46.38,-76.97C66.71,-64.15 98.72,-43.96 119.09,-31.11"/>
</g>
<!-- lhk -->
<g id="node12" class="node">
<title>lhk</title>
<ellipse fill="none" stroke="black" cx="371.3" cy="-18" rx="27" ry="18"/>
<text text-anchor="middle" x="371.3" y="-14.3" font-family="Times,serif" font-size="14.00">lhk</text>
</g>
<!-- nvd&#45;&#45;lhk -->
<g id="edge25" class="edge">
<title>nvd&#45;&#45;lhk</title>
<path fill="none" stroke="black" d="M334.96,-73.12C342.65,-61.66 352.99,-46.26 360.67,-34.82"/>
</g>
<!-- rsh -->
<g id="node5" class="node">
<title>rsh</title>
<ellipse fill="none" stroke="black" cx="458.3" cy="-306" rx="27" ry="18"/>
<text text-anchor="middle" x="458.3" y="-302.3" font-family="Times,serif" font-size="14.00">rsh</text>
</g>
<!-- frs -->
<g id="node6" class="node">
<title>frs</title>
<ellipse fill="none" stroke="black" cx="422.3" cy="-234" rx="27" ry="18"/>
<text text-anchor="middle" x="422.3" y="-230.3" font-family="Times,serif" font-size="14.00">frs</text>
</g>
<!-- rsh&#45;&#45;frs -->
<g id="edge4" class="edge">
<title>rsh&#45;&#45;frs</title>
<path fill="none" stroke="black" d="M449.95,-288.76C444.13,-277.46 436.41,-262.44 430.6,-251.15"/>
</g>
<!-- pzl -->
<g id="node7" class="node">
<title>pzl</title>
<ellipse fill="none" stroke="black" cx="494.3" cy="-234" rx="27" ry="18"/>
<text text-anchor="middle" x="494.3" y="-230.3" font-family="Times,serif" font-size="14.00">pzl</text>
</g>
<!-- rsh&#45;&#45;pzl -->
<g id="edge5" class="edge">
<title>rsh&#45;&#45;pzl</title>
<path fill="none" stroke="black" d="M466.65,-288.76C472.46,-277.46 480.19,-262.44 485.99,-251.15"/>
</g>
<!-- lsr -->
<g id="node8" class="node">
<title>lsr</title>
<ellipse fill="none" stroke="black" cx="549.3" cy="-162" rx="27" ry="18"/>
<text text-anchor="middle" x="549.3" y="-158.3" font-family="Times,serif" font-size="14.00">lsr</text>
</g>
<!-- rsh&#45;&#45;lsr -->
<g id="edge6" class="edge">
<title>rsh&#45;&#45;lsr</title>
<path fill="none" stroke="black" d="M479.61,-294.78C496.02,-285.8 517.92,-271.17 530.3,-252 544.52,-229.97 548.29,-199.09 549.18,-180.1"/>
</g>
<!-- frs&#45;&#45;lsr -->
<g id="edge33" class="edge">
<title>frs&#45;&#45;lsr</title>
<path fill="none" stroke="black" d="M442.42,-221.91C466.06,-208.88 505.07,-187.38 528.85,-174.27"/>
</g>
<!-- qnr -->
<g id="node11" class="node">
<title>qnr</title>
<ellipse fill="none" stroke="black" cx="363.3" cy="-162" rx="27" ry="18"/>
<text text-anchor="middle" x="363.3" y="-158.3" font-family="Times,serif" font-size="14.00">qnr</text>
</g>
<!-- frs&#45;&#45;qnr -->
<g id="edge31" class="edge">
<title>frs&#45;&#45;qnr</title>
<path fill="none" stroke="black" d="M409.5,-217.81C399.6,-206.07 385.96,-189.89 376.07,-178.16"/>
</g>
<!-- frs&#45;&#45;lhk -->
<g id="edge32" class="edge">
<title>frs&#45;&#45;lhk</title>
<path fill="none" stroke="black" d="M418.21,-215.85C408.64,-175.68 384.86,-75.89 375.33,-35.94"/>
</g>
<!-- pzl&#45;&#45;nvd -->
<g id="edge19" class="edge">
<title>pzl&#45;&#45;nvd</title>
<path fill="none" stroke="black" d="M480.06,-218.48C461.95,-200.3 429.43,-168.56 399.3,-144 381.01,-129.09 358.8,-113.7 343.31,-103.38"/>
</g>
<!-- pzl&#45;&#45;lsr -->
<g id="edge17" class="edge">
<title>pzl&#45;&#45;lsr</title>
<path fill="none" stroke="black" d="M506.23,-217.81C515.46,-206.07 528.17,-189.89 537.39,-178.16"/>
</g>
<!-- pzl&#45;&#45;hfx -->
<g id="edge18" class="edge">
<title>pzl&#45;&#45;hfx</title>
<path fill="none" stroke="black" d="M486.16,-216.58C468.57,-183.01 423.5,-106.74 361.3,-72 296.85,-36 208.71,-24.35 165.06,-20.66"/>
</g>
<!-- lsr&#45;&#45;lhk -->
<g id="edge26" class="edge">
<title>lsr&#45;&#45;lhk</title>
<path fill="none" stroke="black" d="M532.55,-147.64C498.54,-120.51 421.73,-59.24 387.87,-32.22"/>
</g>
<!-- cmg -->
<g id="node10" class="node">
<title>cmg</title>
<ellipse fill="none" stroke="black" cx="308.3" cy="-234" rx="30.59" ry="18"/>
<text text-anchor="middle" x="308.3" y="-230.3" font-family="Times,serif" font-size="14.00">cmg</text>
</g>
<!-- cmg&#45;&#45;nvd -->
<g id="edge9" class="edge">
<title>cmg&#45;&#45;nvd</title>
<path fill="none" stroke="black" d="M310.23,-215.87C313.3,-188.58 319.28,-135.52 322.36,-108.19"/>
</g>
<!-- cmg&#45;&#45;qnr -->
<g id="edge8" class="edge">
<title>cmg&#45;&#45;qnr</title>
<path fill="none" stroke="black" d="M320.5,-217.46C329.62,-205.86 342.02,-190.08 351.13,-178.49"/>
</g>
<!-- cmg&#45;&#45;lhk -->
<g id="edge10" class="edge">
<title>cmg&#45;&#45;lhk</title>
<path fill="none" stroke="black" d="M299.9,-216.25C285.78,-185.56 261.3,-119.15 287.3,-72 299.95,-49.05 327.19,-34.67 347.24,-26.77"/>
</g>
<!-- cmg&#45;&#45;bvb -->
<g id="edge11" class="edge">
<title>cmg&#45;&#45;bvb</title>
<path fill="none" stroke="black" d="M283.94,-222.97C251.16,-209.47 193.29,-185.64 161.25,-172.45"/>
</g>
<!-- qnr&#45;&#45;nvd -->
<g id="edge20" class="edge">
<title>qnr&#45;&#45;nvd</title>
<path fill="none" stroke="black" d="M354.25,-144.76C347.95,-133.46 339.58,-118.44 333.29,-107.15"/>
</g>
<!-- bvb&#45;&#45;xhk -->
<g id="edge15" class="edge">
<title>bvb&#45;&#45;xhk</title>
<path fill="none" stroke="black" d="M118.96,-148.81C98.59,-135.96 66.7,-115.85 46.41,-103.05"/>
</g>
<!-- bvb&#45;&#45;hfx -->
<g id="edge16" class="edge">
<title>bvb&#45;&#45;hfx</title>
<path fill="none" stroke="black" d="M138.3,-143.87C138.3,-116.58 138.3,-63.52 138.3,-36.19"/>
</g>
<!-- ntq -->
<g id="node14" class="node">
<title>ntq</title>
<ellipse fill="none" stroke="black" cx="111.3" cy="-378" rx="27" ry="18"/>
<text text-anchor="middle" x="111.3" y="-374.3" font-family="Times,serif" font-size="14.00">ntq</text>
</g>
<!-- ntq&#45;&#45;jqt -->
<g id="edge21" class="edge">
<title>ntq&#45;&#45;jqt</title>
<path fill="none" stroke="black" d="M104.66,-360.41C100.2,-349.25 94.34,-334.6 89.89,-323.47"/>
</g>
<!-- ntq&#45;&#45;xhk -->
<g id="edge24" class="edge">
<title>ntq&#45;&#45;xhk</title>
<path fill="none" stroke="black" d="M91.42,-365.66C76.93,-356.34 58.02,-341.79 47.3,-324 4.87,-253.58 17.05,-148.78 23.99,-108.05"/>
</g>
<!-- ntq&#45;&#45;hfx -->
<g id="edge22" class="edge">
<title>ntq&#45;&#45;hfx</title>
<path fill="none" stroke="black" d="M126.52,-362.87C150.48,-339.01 194.3,-288.11 194.3,-235 194.3,-235 194.3,-235 194.3,-161 194.3,-112.24 165.37,-60.21 149.09,-34.81"/>
</g>
<!-- ntq&#45;&#45;bvb -->
<g id="edge23" class="edge">
<title>ntq&#45;&#45;bvb</title>
<path fill="none" stroke="black" d="M114.03,-359.83C115.65,-349.47 117.69,-335.99 119.3,-324 126.31,-271.84 133.22,-209.97 136.43,-180.42"/>
</g>
<!-- rzs -->
<g id="node15" class="node">
<title>rzs</title>
<ellipse fill="none" stroke="black" cx="412.3" cy="-378" rx="27" ry="18"/>
<text text-anchor="middle" x="412.3" y="-374.3" font-family="Times,serif" font-size="14.00">rzs</text>
</g>
<!-- rzs&#45;&#45;rsh -->
<g id="edge30" class="edge">
<title>rzs&#45;&#45;rsh</title>
<path fill="none" stroke="black" d="M422.74,-361.12C430.26,-349.66 440.38,-334.26 447.9,-322.82"/>
</g>
<!-- rzs&#45;&#45;lsr -->
<g id="edge29" class="edge">
<title>rzs&#45;&#45;lsr</title>
<path fill="none" stroke="black" d="M433.5,-366.69C467.12,-348.87 530.84,-308.72 550.3,-252 558.52,-228.03 555.8,-198.25 552.78,-179.93"/>
</g>
<!-- rzs&#45;&#45;cmg -->
<g id="edge28" class="edge">
<title>rzs&#45;&#45;cmg</title>
<path fill="none" stroke="black" d="M394.69,-364.07C382.04,-354.13 365.18,-339.52 353.3,-324 335.82,-301.18 322.09,-270.53 314.59,-251.8"/>
</g>
<!-- rzs&#45;&#45;qnr -->
<g id="edge27" class="edge">
<title>rzs&#45;&#45;qnr</title>
<path fill="none" stroke="black" d="M408.37,-359.85C399.17,-319.68 376.32,-219.89 367.18,-179.94"/>
</g>
</g>
</svg>
